<?xml version="1.0" encoding="utf-8"?>
<!-- Generator: Adobe Illustrator 23.0.1, SVG Export Plug-In . SVG Version: 6.00 Build 0)  -->
<svg version="1.1" id="Calque_1" xmlns="http://www.w3.org/2000/svg" xmlns:xlink="http://www.w3.org/1999/xlink" x="0px" y="0px"
	 viewBox="0 0 512 512" style="enable-background:new 0 0 512 512;" xml:space="preserve">
<style type="text/css">
	.st0{fill:#FF3300;}
	.st1{fill:#999999;}
	.st2{fill:#CCCCCC;}
	.st3{fill:#E6E6E6;}
	.st4{fill:#00CCCC;}
	.st5{fill:#FFCC00;}
	.st6{fill:#191919;}
	.roll1,	.roll2,	.roll3,	.roll4 {visibility:hidden;}
</style>
<g id="rad">
<path id="fond_bandeau" class="st0" d="M440.7,385.2c0.8,12.4-5.5,19.8-17.3,19.8H89.1c-11.4-0.2-17.7-7.3-17-19.3 c0.7-10.5,2.7-33.8,2.9-35.1h362.9C438.3,354.9,440.2,377.9,440.7,385.2z"/>
<path id="fond_enceinte" class="st1" d="M438.4,342.6c-1.5,0.1-363.8,0.1-364.8,0c0.9-11.4,9.8-123.3,10.9-135.9 c0.7-7.9,6.7-13.9,14.7-14.2c7.7-0.3,316.3,0.1,319.2,1.2c5.8,2.2,9,6.9,9.6,13C429.2,220.7,437.5,330.9,438.4,342.6L438.4,342.6z"/>
<g id="boutons">
	<path id="RD" class="st2" d="M391.5,363.5c0,9.3-7.6,17-16.9,16.9c-9.2-0.1-16.7-7.6-16.7-16.7c0-9.3,7.5-16.9,17-16.8 C384,346.9,391.5,354.3,391.5,363.5z"/>
	<path id="RG" class="st2" d="M155.7,363.5c0.1,9.3-7.7,17-17,16.9c-9.4-0.1-16.7-7.7-16.6-17.1c0.1-9.3,7.5-16.5,16.9-16.4 C148.3,346.9,155.6,354.3,155.7,363.5z"/>
	<path id="CD" class="st3" d="M423.6,380.8v10.6h-10.8v-10.6H423.6z"/>
	<path id="CG" class="st3" d="M99.3,380.7v10.8H88.6v-10.8H99.3z"/>
</g>
<g id="antenne">
	<path id="base" class="st4" d="M144.3,164.4c0.5,1.3,1,2.6,1.5,4c-2.4,0.9-27,9.9-31.7,11.6c-1.3-3.5-2.5-6.9-3.8-10.5 c10.5-3.8,20.8-7.6,31.6-11.5c0.6,1.8,1.3,3.4,1.9,5.1C143.9,163.6,144.1,164,144.3,164.4L144.3,164.4z"/>
	<path id="sup_bague" class="st2" d="M165.6,157.3c0.4,1.2,0.9,2.3,1.3,3.6c-3.5,1.3-1.6,0.5-5.4,1.9c-0.3-1-0.7-1.9-1-2.8 c-0.3-0.8-0.6-1.6-0.9-2.4c-0.6-1.7-1.3-3.4-1.9-5.2c3.6-1.3,1.7-0.6,5.3-1.9C163.9,152.7,164.7,155,165.6,157.3L165.6,157.3z"/>
	<path id="bague" class="st5" d="M160.5,159.9c0.3,0.9,0.7,1.9,1,2.8c-3.5,1.3-6.8,2.5-10.5,3.9c-0.8-2.3-1.6-4.4-2.4-6.6 c-0.3-0.7-0.5-1.5-0.8-2.2c-0.2-0.6-0.4-1.1-0.6-1.7c3.6-1.3,6.9-2.6,10.5-3.9c0.7,1.8,1.3,3.5,1.9,5.2 C159.9,158.3,160.2,159.1,160.5,159.9L160.5,159.9z"/>
	<path id="inf_bague" class="st2" d="M148.6,160.1c0.8,2.2,1.5,4.3,2.4,6.6c-3.5,1.3-1.5,0.4-5.3,1.8c-0.5-1.4-1-2.7-1.5-4 c-0.2-0.4-0.3-0.9-0.5-1.3c-0.6-1.7-1.3-3.4-1.9-5.1c3.6-1.3,1.7-0.6,5.4-1.9c0.2,0.6,0.4,1.1,0.6,1.7 C148.1,158.6,148.4,159.3,148.6,160.1z"/>
	<path id="longe" class="st4" d="M342.2,85.1l3.9,10.6c0,0-119.3,43.4-179.1,65.2c-0.4-1.2-0.9-2.4-1.3-3.6c-0.9-2.3-1.7-4.6-2.6-7 C222.9,128.5,342.2,85.1,342.2,85.1z"/>
	<polygon id="embout" class="st5" points="351,75.9 340.6,79.7 342.2,85.1 346,95.7 348.3,100.8 358.7,97 	"/>
</g>
<g id="ondulateur">
	<path id="fond_onde" class="st3" d="M319.5,369.3v16.5L194.1,386v-16.5L319.5,369.3z"/>
	<path id="squelette_onde_0" class="st6 roll0" d="M329.4,358.1v38.8H183.6v-38.8H329.4z M195.1,369.3v16.3h11v-10.9h11.2v10.8h11
		c0.2-1.9,0.3-3.4,0.4-5h10.8c0.2,1.9,0.3,3.5,0.5,5.1h10.8l0-16.3l11.8-0.2l-0.1,16.4h10.8c0.1-1.9,0.3-3.4,0.4-5h10.8
		c0.1,1.8,0.3,3.3,0.4,5.1h11.1v-10.7h11.3v10.7c3.8-0.1,7.3-0.1,10.8-0.1l0,0v-16.2L195.1,369.3z"/>
	<path id="squelette_onde_1" class="st6 roll1" d="M329.4,358.1v38.8H183.6v-38.8H329.4z M195.1,369.3v16.3h6v-7.9h11.2v7.8h11
		c0.2-1.9,0.3-6.4,0.4-8h10.8c0.2,1.9,0.3,6.5,0.5,8.1h10.8l0-13.3l11.8-0.2l-0.1,13.4h10.8c0.1-1.9,0.3-6.4,0.4-8h10.8
		c0.1,1.8,0.3,6.3,0.4,8.1h11.1v-7.7h11.3v7.7c3.8-0.1,12.3-0.1,15.8-0.1l0,0v-16.2L195.1,369.3z"/>
	<path id="squelette_onde_2" class="st6 roll2" d="M329.4,358.1v38.8H183.6v-38.8H329.4z M195.1,369.3v16.3h3v-4.9h11.2v4.8h11
		c0.2-1.9,0.3-9.4,0.4-11h10.8c0.2,1.9,0.3,9.5,0.5,11.1h10.8l0-7.3l11.8-0.2l-0.1,7.4h10.8c0.1-1.9,0.3-5.4,0.4-7h10.8
		c0.1,1.8,0.3,5.3,0.4,7.1h11.1v-8.7h11.3v8.7c3.8-0.1,15.3-0.1,18.8-0.1l0,0v-16.2L195.1,369.3z"/>
	<path id="squelette_onde_3" class="st6 roll3" d="M329.4,358.1v38.8H183.6v-38.8H329.4z M195.1,369.3v16.3h15v-13.9h11.2v13.8h11
		c0.2-1.9,0.3-1.4,0.4-3h10.8c0.2,1.9,0.3,1.5,0.5,3.1h10.8l0-10.3l11.8-0.2l-0.1,10.4h10.8c0.1-1.9,0.3-13.4,0.4-15h10.8
		c0.1,1.8,0.3,13.3,0.4,15.1h11.1v-9.7h11.3v9.7c3.8-0.1,3.3-0.1,6.8-0.1l0,0v-16.2L195.1,369.3z"/>
	<path id="squelette_onde_4" class="st6 roll4" d="M329.4,358.1v38.8H183.6v-38.8H329.4z M195.1,369.3v16.3h20v-14.9h11.2v14.8h11
		c0.2-1.9,0.3-4.4,0.4-6h10.8c0.2,1.9,0.3,4.5,0.5,6.1h10.8l0-1.3l11.8-0.2l-0.1,1.4h10.8c0.1-1.9,0.3-9.4,0.4-11h10.8
		c0.1,1.8,0.3,9.3,0.4,11.1h11.1v-1.7h11.3v1.7c3.8-0.1-1.7-0.1,1.8-0.1l0,0v-16.2L195.1,369.3z"/>
</g>
<path id="squelette_all" class="st6" d="M448.4,384.5c1.1,17.1-10.3,29.4-27.4,29.5h-17.7v23.7h-11.2v-23.4H121.2v23.4H110V414
	c-4.6,0-21.1,0.2-24.9-0.7C75,411,67.7,402.6,65.9,396.1c-0.2-0.6-0.6-4.2-0.5-7.6c1-29.8,11.3-155.4,13.5-180.3
	c1.1-13.6,11.9-23.8,25.6-24.2c6.4-0.2,21.5-0.1,22.9-0.1v-8.6l11.6-4.2V184c1.9,0,180.3,0.1,267.8-0.1c14.3,0,24.6,9,27.2,20.2
	C434.9,208.7,447.9,377.6,448.4,384.5L448.4,384.5z M420.1,402.9c11.6,0,17.8-6.8,17-18.3c-0.5-6.7-2.3-28.1-2.7-32.2h-33.8
	c4.5,14.2,1.6,26.1-10.9,34.7c-9.4,6.4-22.1,5.9-31.4-0.7c-10.5-7.4-13.7-18.3-9.9-33.9H165c3.2,16.9,0.2,27.1-10.4,34.1
	c-9.7,6.4-20.1,7.1-30,1c-13.3-8.2-16.4-20.5-11.9-35.2H78.6c-0.2,1.2-2.1,22.8-2.8,32.5c-0.8,11,5.5,17.7,16.7,17.9
	C93.8,402.8,388.2,403,420.1,402.9L420.1,402.9z M433.7,340.9c-0.9-11.2-1.7-22.2-2.6-33.6h-11.3v-11.4h10.4
	c-0.9-11.4-1.7-22.3-2.6-33.3c-2.9-0.1-5.4-0.3-7.8-0.4v-10.9c2.4-0.1,4.4-0.3,6.5-0.4c0.1-0.6-1.7-28.4-2.9-41.9
	c-0.5-5.9-3.6-10.5-9.3-12.6c-2.8-1.1-302.4-1.6-309.9-1.2c-7.8,0.3-13.6,6.1-14.3,13.8c-1.1,12.2-3,40-3,42
	c2.3,0.1,4.5,0.3,6.6,0.4v10.9c-2.7,0.1-5.2,0.2-7.9,0.4c-0.9,11.1-1.8,22-2.7,33.7h10.6v11.1H82c-0.9,11.4-1.8,22.3-2.7,33.4
	c1,0.1,27.8,0.3,40.6,0.2c1.4,0,2.8-0.7,4.1-1.4c9.7-5.5,19.4-5.5,29.3-0.1c1.7,0.9,3.7,1.5,5.6,1.5c65.2,0.1,130.5,0.1,195.7,0
	c1.9,0,3.9-0.7,5.5-1.6c9.7-5.2,19.3-5.3,28.9,0c1.5,0.9,3.5,1.5,5.2,1.5C406.1,341.1,432.2,341,433.7,340.9L433.7,340.9z
	 M374.6,380.4c9.3,0.1,17-7.6,16.9-16.9c0-9.2-7.5-16.6-16.7-16.7c-9.4,0-17,7.5-17,16.8C357.9,372.8,365.4,380.4,374.6,380.4
	L374.6,380.4z M138.8,380.4c9.3,0.1,17-7.6,17-16.9c-0.1-9.2-7.5-16.6-16.7-16.7c-9.3-0.1-16.8,7.2-16.9,16.4
	C122,372.7,129.3,380.3,138.8,380.4z"/>
<g id="squelette_enceinte">
	<path class="st6" d="M419.4,273.9v10.8h-10.7v-10.8H419.4z"/>
	<path class="st6" d="M419.3,318.9v10.8h-10.7v-10.8H419.3z"/>
	<path class="st6" d="M419.3,229v10.7h-10.8V229H419.3z"/>
	<path class="st6" d="M408.1,296.5v10.8h-10.7v-10.8H408.1z"/>
	<path class="st6" d="M408,251.5v10.8h-10.7v-10.8L408,251.5L408,251.5z"/>
	<path class="st6" d="M408,206.7v10.7h-10.6v-10.7H408z"/>
	<path class="st6" d="M397,229.1v10.6h-10.7v-10.6H397z"/>
	<path class="st6" d="M396.9,318.8v10.9h-10.8v-10.9H396.9z"/>
	<path class="st6" d="M396.9,274v10.7h-10.8V274H396.9z"/>
	<path class="st6" d="M385.7,251.5v10.8h-10.8v-10.8L385.7,251.5L385.7,251.5z"/>
	<path class="st6" d="M385.7,206.6v10.7H375v-10.7H385.7z"/>
	<path class="st6" d="M385.7,296.4v10.8H375v-10.8H385.7z"/>
	<path class="st6" d="M374.5,318.9v10.9h-10.6v-10.9H374.5z"/>
	<path class="st6" d="M374.4,274v10.8h-10.7V274H374.4z"/>
	<path class="st6" d="M374.4,228.9v10.8h-10.7v-10.8H374.4z"/>
	<path class="st6" d="M352,229v10.9h-10.7V229H352z"/>
	<path class="st6" d="M363.3,206.7v10.7h-10.7v-10.7H363.3z"/>
	<path class="st6" d="M363.3,251.6v10.7h-10.7v-10.7L363.3,251.6L363.3,251.6z"/>
	<path class="st6" d="M363.2,296.4v10.7h-10.7v-10.7H363.2z"/>
	<path class="st6" d="M352.1,319v10.7h-10.7V319H352.1z"/>
	<path class="st6" d="M352,273.9v10.8h-10.7v-10.8H352z"/>
	<path class="st6" d="M340.9,251.4v10.8h-10.8v-10.8L340.9,251.4L340.9,251.4z"/>
	<path class="st6" d="M340.9,296.5v10.8h-10.8v-10.8H340.9z"/>
	<path class="st6" d="M340.8,206.6v10.7h-10.7v-10.7H340.8z"/>
	<path class="st6" d="M329.7,318.8v10.7h-10.9v-10.7H329.7z"/>
	<path class="st6" d="M329.5,229v10.8h-10.7V229H329.5z"/>
	<path class="st6" d="M329.5,273.9v10.8h-10.6v-10.8H329.5z"/>
	<path class="st6" d="M318.4,206.8v10.5h-10.9v-10.5H318.4z"/>
	<path class="st6" d="M318.4,251.6v10.7h-10.8v-10.7L318.4,251.6L318.4,251.6z"/>
	<path class="st6" d="M318.3,296.3v10.8h-10.6v-10.8H318.3z"/>
	<path class="st6" d="M307.2,318.9v10.7h-10.8v-10.7H307.2z"/>
	<path class="st6" d="M307.2,229.1v10.6h-10.8v-10.6H307.2z"/>
	<path class="st6" d="M307.2,273.9v10.8h-10.8v-10.8H307.2z"/>
	<path class="st6" d="M295.9,251.5v10.8h-10.7v-10.8L295.9,251.5L295.9,251.5z"/>
	<path class="st6" d="M295.9,296.4v10.7h-10.7v-10.7H295.9z"/>
	<path class="st6" d="M295.9,206.6v10.8h-10.8v-10.8H295.9z"/>
	<path class="st6" d="M284.7,229v10.8h-10.9V229H284.7z"/>
	<path class="st6" d="M284.7,274v10.7h-10.8V274H284.7z"/>
	<path class="st6" d="M284.7,318.8v10.7h-10.8v-10.7H284.7z"/>
	<path class="st6" d="M273.5,251.6v10.6h-10.9v-10.6H273.5z"/>
	<path class="st6" d="M273.4,296.4v10.9h-10.7v-10.9H273.4z"/>
	<path class="st6" d="M273.4,206.6v10.7h-10.7v-10.7H273.4z"/>
	<path class="st6" d="M262.3,318.9v10.8h-10.8v-10.8H262.3z"/>
	<path class="st6" d="M262.2,274v10.8h-10.8V274H262.2z"/>
	<path class="st6" d="M262.2,229.1v10.6h-10.8v-10.6H262.2z"/>
	<path class="st6" d="M251,251.5v10.9h-10.8v-10.9H251z"/>
	<path class="st6" d="M251,206.6v10.8h-10.9v-10.8H251z"/>
	<path class="st6" d="M250.9,296.4v10.8h-10.7v-10.8H250.9z"/>
	<path class="st6" d="M239.8,318.9v10.7H229v-10.7H239.8z"/>
	<path class="st6" d="M239.8,229.1v10.8H229v-10.8H239.8z"/>
	<path class="st6" d="M239.7,273.9v10.9H229v-10.9H239.7z"/>
	<path class="st6" d="M228.6,251.5v10.7h-10.9v-10.7L228.6,251.5L228.6,251.5z"/>
	<path class="st6" d="M228.5,206.6v10.7h-10.8v-10.7H228.5z"/>
	<path class="st6" d="M228.4,296.4v10.8h-10.8v-10.8H228.4z"/>
	<path class="st6" d="M217.4,229.1v10.7h-10.9v-10.7H217.4z"/>
	<path class="st6" d="M217.3,273.9v10.8h-10.8v-10.8H217.3z"/>
	<path class="st6" d="M217.3,318.9v10.7h-10.9v-10.7H217.3z"/>
	<path class="st6" d="M206,251.6v10.8h-10.8v-10.8L206,251.6L206,251.6z"/>
	<path class="st6" d="M206,206.7v10.7h-10.9v-10.7H206z"/>
	<path class="st6" d="M206,296.4v10.8h-10.8v-10.8H206z"/>
	<path class="st6" d="M194.8,229v10.8H184V229H194.8z"/>
	<path class="st6" d="M194.8,274v10.7h-10.9V274H194.8z"/>
	<path class="st6" d="M194.8,318.8v10.8H184v-10.8H194.8z"/>
	<path class="st6" d="M183.5,206.6v10.8h-10.9v-10.8H183.5z"/>
	<path class="st6" d="M183.5,251.5v10.8h-10.8v-10.8L183.5,251.5L183.5,251.5z"/>
	<path class="st6" d="M183.5,296.3v10.9h-10.6v-10.9H183.5z"/>
	<path class="st6" d="M172.4,318.9v10.6h-10.9v-10.6H172.4z"/>
	<path class="st6" d="M172.4,229v10.7h-10.9V229H172.4z"/>
	<path class="st6" d="M172.3,273.9v10.8h-10.7v-10.8H172.3z"/>
	<path class="st6" d="M161.2,251.6v10.6h-10.9v-10.6H161.2z"/>
	<path class="st6" d="M161.1,206.6v10.7h-10.9v-10.7H161.1z"/>
	<path class="st6" d="M161.1,296.4v10.7h-10.9v-10.7H161.1z"/>
	<path class="st6" d="M149.9,273.9v10.8h-10.8v-10.8H149.9z"/>
	<path class="st6" d="M149.9,229.1v10.8h-10.8v-10.8H149.9z"/>
	<path class="st6" d="M149.8,318.9v10.8h-10.7v-10.8H149.8z"/>
	<path class="st6" d="M138.7,251.5v10.8h-10.8v-10.8L138.7,251.5L138.7,251.5z"/>
	<path class="st6" d="M138.7,296.4v10.8h-10.8v-10.8H138.7z"/>
	<path class="st6" d="M138.6,206.6v10.7h-10.7v-10.7H138.6z"/>
	<path class="st6" d="M127.5,229.1v10.6h-10.8v-10.6H127.5z"/>
	<path class="st6" d="M127.4,319v10.6h-10.8V319H127.4z"/>
	<path class="st6" d="M127.4,274v10.8h-10.7V274H127.4z"/>
	<path class="st6" d="M116.2,251.7v10.6h-11v-10.6L116.2,251.7L116.2,251.7z"/>
	<path class="st6" d="M116.1,206.6v10.7h-11v-10.7H116.1z"/>
	<path class="st6" d="M116.1,296.5v10.7h-10.9v-10.7H116.1z"/>
	<path class="st6" d="M104.9,273.9v10.9H94v-10.9H104.9z"/>
	<path class="st6" d="M104.9,318.9v10.7H94v-10.7H104.9z"/>
	<path class="st6" d="M104.9,229.1v10.7h-11v-10.7H104.9z"/>
</g>
</g>
</svg>
