<?xml version="1.0" encoding="utf-8"?>
<!-- Generator: Adobe Illustrator 23.0.1, SVG Export Plug-In . SVG Version: 6.00 Build 0)  -->
<svg version="1.1" xmlns="http://www.w3.org/2000/svg" xmlns:xlink="http://www.w3.org/1999/xlink" x="0px" y="0px"
	 viewBox="0 0 384 362"  xml:space="preserve">
<style type="text/css">
	.st0{fill:#FF3300;}
	.st1{fill:#999999;}
	.st2{fill:#CCCCCC;}
	.st3{fill:#E6E6E6;}
	.st4{fill:#00CCCC;}
	.st5{fill:#FFCC00;}
	.st6{fill:#191919;}
	.st7{display:none;fill:#191919;}
</style>
<g id="rad">
	<path id="fond_bandeau" class="st0" d="M375.8,309.4c0.8,12.4-5.5,19.8-17.3,19.8H24.2c-11.4-0.2-17.7-7.3-17-19.3
		c0.7-10.5,2.7-33.8,2.9-35.1H373C373.4,279.1,375.3,302.1,375.8,309.4z"/>
	<path id="fond_enceinte" class="st1" d="M373.5,266.8c-1.5,0.1-363.8,0.1-364.8,0c0.9-11.4,9.8-123.3,10.9-135.9
		c0.7-7.9,6.7-13.9,14.7-14.2c7.7-0.3,316.3,0.1,319.2,1.2c5.8,2.2,9,6.9,9.6,13C364.3,144.9,372.6,255.1,373.5,266.8L373.5,266.8z"
		/>
	<g id="boutons">
		<path id="RD" class="st2" d="M326.6,287.7c0,9.3-7.6,17-16.9,16.9c-9.2-0.1-16.7-7.6-16.7-16.7c0-9.3,7.5-16.9,17-16.8
			C319.1,271.1,326.6,278.5,326.6,287.7z"/>
		<path id="RG" class="st2" d="M90.8,287.7c0.1,9.3-7.7,17-17,16.9c-9.4-0.1-16.7-7.7-16.6-17.1c0.1-9.3,7.5-16.5,16.9-16.4
			C83.4,271.1,90.7,278.5,90.8,287.7z"/>
		<path id="CD" class="st3" d="M358.7,305v10.6h-10.8V305H358.7z"/>
		<path id="CG" class="st3" d="M34.4,304.9v10.8H23.7v-10.8H34.4z"/>
	</g>
	<g id="antenne">
		<path id="base" class="st4" d="M79.4,88.6c0.5,1.3,1,2.6,1.5,4c-2.4,0.9-27,9.9-31.7,11.6c-1.3-3.5-2.5-6.9-3.8-10.5
			c10.5-3.8,20.8-7.6,31.6-11.5c0.6,1.8,1.3,3.4,1.9,5.1C79,87.8,79.2,88.2,79.4,88.6L79.4,88.6z"/>
		<path id="sup_bague" class="st2" d="M100.7,81.5c0.4,1.2,0.9,2.3,1.3,3.6c-3.5,1.3-1.6,0.5-5.4,1.9c-0.3-1-0.7-1.9-1-2.8
			c-0.3-0.8-0.6-1.6-0.9-2.4c-0.6-1.7-1.3-3.4-1.9-5.2c3.6-1.3,1.7-0.6,5.3-1.9C99,76.9,99.8,79.2,100.7,81.5L100.7,81.5z"/>
		<path id="bague" class="st5" d="M95.6,84.1c0.3,0.9,0.7,1.9,1,2.8c-3.5,1.3-6.8,2.5-10.5,3.9c-0.8-2.3-1.6-4.4-2.4-6.6
			c-0.3-0.7-0.5-1.5-0.8-2.2c-0.2-0.6-0.4-1.1-0.6-1.7c3.6-1.3,6.9-2.6,10.5-3.9c0.7,1.8,1.3,3.5,1.9,5.2
			C95,82.5,95.3,83.3,95.6,84.1L95.6,84.1z"/>
		<path id="inf_bague" class="st2" d="M83.7,84.3c0.8,2.2,1.5,4.3,2.4,6.6c-3.5,1.3-1.5,0.4-5.3,1.8c-0.5-1.4-1-2.7-1.5-4
			c-0.2-0.4-0.3-0.9-0.5-1.3c-0.6-1.7-1.3-3.4-1.9-5.1c3.6-1.3,1.7-0.6,5.4-1.9c0.2,0.6,0.4,1.1,0.6,1.7
			C83.2,82.8,83.5,83.5,83.7,84.3z"/>
		<path id="longe" class="st4" d="M277.3,9.3l3.9,10.6c0,0-119.3,43.4-179.1,65.2c-0.4-1.2-0.9-2.4-1.3-3.6c-0.9-2.3-1.7-4.6-2.6-7
			C158,52.7,277.3,9.3,277.3,9.3z"/>
		<polygon id="embout" class="st5" points="286.1,0.1 275.7,3.9 277.3,9.3 281.1,19.9 283.4,25 293.8,21.2 		"/>
	</g>
	<g id="ondulateur">
		<path id="fond_onde" class="st3" d="M254.6,293.5V310l-125.4,0.2v-16.5L254.6,293.5z"/>
		<path id="squelette_onde_0" class="st6" d="M264.5,282.3v38.8H118.7v-38.8H264.5z M130.2,293.5v16.3h11v-10.9h11.2v10.8h11
			c0.2-1.9,0.3-3.4,0.4-5h10.8c0.2,1.9,0.3,3.5,0.5,5.1h10.8v-16.3l11.8-0.2l-0.1,16.4h10.8c0.1-1.9,0.3-3.4,0.4-5h10.8
			c0.1,1.8,0.3,3.3,0.4,5.1h11.1v-10.7h11.3v10.7c3.8-0.1,7.3-0.1,10.8-0.1l0,0v-16.2L130.2,293.5z"/>
		<path id="squelette_onde_1" class="st7" d="M264.5,282.3v38.8H118.7v-38.8H264.5z M130.2,293.5v16.3h6v-7.9h11.2v7.8h11
			c0.2-1.9,0.3-6.4,0.4-8h10.8c0.2,1.9,0.3,6.5,0.5,8.1h10.8v-13.3l11.8-0.2l-0.1,13.4h10.8c0.1-1.9,0.3-6.4,0.4-8h10.8
			c0.1,1.8,0.3,6.3,0.4,8.1h11.1v-7.7h11.3v7.7c3.8-0.1,12.3-0.1,15.8-0.1l0,0v-16.2L130.2,293.5z"/>
		<path id="squelette_onde_2" class="st7" d="M264.5,282.3v38.8H118.7v-38.8H264.5z M130.2,293.5v16.3h3v-4.9h11.2v4.8h11
			c0.2-1.9,0.3-9.4,0.4-11h10.8c0.2,1.9,0.3,9.5,0.5,11.1h10.8v-7.3l11.8-0.2l-0.1,7.4h10.8c0.1-1.9,0.3-5.4,0.4-7h10.8
			c0.1,1.8,0.3,5.3,0.4,7.1h11.1v-8.7h11.3v8.7c3.8-0.1,15.3-0.1,18.8-0.1l0,0v-16.2L130.2,293.5z"/>
		<path id="squelette_onde_3" class="st7" d="M264.5,282.3v38.8H118.7v-38.8H264.5z M130.2,293.5v16.3h15v-13.9h11.2v13.8h11
			c0.2-1.9,0.3-1.4,0.4-3h10.8c0.2,1.9,0.3,1.5,0.5,3.1h10.8v-10.3l11.8-0.2l-0.1,10.4h10.8c0.1-1.9,0.3-13.4,0.4-15h10.8
			c0.1,1.8,0.3,13.3,0.4,15.1h11.1v-9.7h11.3v9.7c3.8-0.1,3.3-0.1,6.8-0.1l0,0v-16.2L130.2,293.5z"/>
		<path id="squelette_onde_4" class="st7" d="M264.5,282.3v38.8H118.7v-38.8H264.5z M130.2,293.5v16.3h20v-14.9h11.2v14.8h11
			c0.2-1.9,0.3-4.4,0.4-6h10.8c0.2,1.9,0.3,4.5,0.5,6.1h10.8v-1.3l11.8-0.2l-0.1,1.4h10.8c0.1-1.9,0.3-9.4,0.4-11h10.8
			c0.1,1.8,0.3,9.3,0.4,11.1h11.1v-1.7h11.3v1.7c3.8-0.1-1.7-0.1,1.8-0.1l0,0v-16.2L130.2,293.5z"/>
	</g>
	<path id="squelette_all" class="st6" d="M383.5,308.7c1.1,17.1-10.3,29.4-27.4,29.5h-17.7v23.7h-11.2v-23.4H56.3v23.4H45.1v-23.7
		c-4.6,0-21.1,0.2-24.9-0.7C10.1,335.2,2.8,326.8,1,320.3c-0.2-0.6-0.6-4.2-0.5-7.6c1-29.8,11.3-155.4,13.5-180.3
		c1.1-13.6,11.9-23.8,25.6-24.2c6.4-0.2,21.5-0.1,22.9-0.1v-8.6l11.6-4.2v12.9c1.9,0,180.3,0.1,267.8-0.1c14.3,0,24.6,9,27.2,20.2
		C370,132.9,383,301.8,383.5,308.7L383.5,308.7z M355.2,327.1c11.6,0,17.8-6.8,17-18.3c-0.5-6.7-2.3-28.1-2.7-32.2h-33.8
		c4.5,14.2,1.6,26.1-10.9,34.7c-9.4,6.4-22.1,5.9-31.4-0.7c-10.5-7.4-13.7-18.3-9.9-33.9H100.1c3.2,16.9,0.2,27.1-10.4,34.1
		c-9.7,6.4-20.1,7.1-30,1c-13.3-8.2-16.4-20.5-11.9-35.2H13.7c-0.2,1.2-2.1,22.8-2.8,32.5c-0.8,11,5.5,17.7,16.7,17.9
		C28.9,327,323.3,327.2,355.2,327.1L355.2,327.1z M368.8,265.1c-0.9-11.2-1.7-22.2-2.6-33.6h-11.3v-11.4h10.4
		c-0.9-11.4-1.7-22.3-2.6-33.3c-2.9-0.1-5.4-0.3-7.8-0.4v-10.9c2.4-0.1,4.4-0.3,6.5-0.4c0.1-0.6-1.7-28.4-2.9-41.9
		c-0.5-5.9-3.6-10.5-9.3-12.6c-2.8-1.1-302.4-1.6-309.9-1.2c-7.8,0.3-13.6,6.1-14.3,13.8c-1.1,12.2-3,40-3,42
		c2.3,0.1,4.5,0.3,6.6,0.4v10.9c-2.7,0.1-5.2,0.2-7.9,0.4c-0.9,11.1-1.8,22-2.7,33.7h10.6v11.1H17.1c-0.9,11.4-1.8,22.3-2.7,33.4
		c1,0.1,27.8,0.3,40.6,0.2c1.4,0,2.8-0.7,4.1-1.4c9.7-5.5,19.4-5.5,29.3-0.1c1.7,0.9,3.7,1.5,5.6,1.5c65.2,0.1,130.5,0.1,195.7,0
		c1.9,0,3.9-0.7,5.5-1.6c9.7-5.2,19.3-5.3,28.9,0c1.5,0.9,3.5,1.5,5.2,1.5C341.2,265.3,367.3,265.2,368.8,265.1L368.8,265.1z
		 M309.7,304.6c9.3,0.1,17-7.6,16.9-16.9c0-9.2-7.5-16.6-16.7-16.7c-9.4,0-17,7.5-17,16.8C293,297,300.5,304.6,309.7,304.6
		L309.7,304.6z M73.9,304.6c9.3,0.1,17-7.6,17-16.9c-0.1-9.2-7.5-16.6-16.7-16.7c-9.3-0.1-16.8,7.2-16.9,16.4
		C57.1,296.9,64.4,304.5,73.9,304.6z"/>
	<g id="squelette_enceinte">
		<path class="st6" d="M354.5,198.1v10.8h-10.7v-10.8H354.5z"/>
		<path class="st6" d="M354.4,243.1v10.8h-10.7v-10.8H354.4z"/>
		<path class="st6" d="M354.4,153.2v10.7h-10.8v-10.7H354.4z"/>
		<path class="st6" d="M343.2,220.7v10.8h-10.7v-10.8H343.2z"/>
		<path class="st6" d="M343.1,175.7v10.8h-10.7v-10.8L343.1,175.7L343.1,175.7z"/>
		<path class="st6" d="M343.1,130.9v10.7h-10.6v-10.7H343.1z"/>
		<path class="st6" d="M332.1,153.3v10.6h-10.7v-10.6H332.1z"/>
		<path class="st6" d="M332,243v10.9h-10.8V243H332z"/>
		<path class="st6" d="M332,198.2v10.7h-10.8v-10.7H332z"/>
		<path class="st6" d="M320.8,175.7v10.8H310v-10.8L320.8,175.7L320.8,175.7z"/>
		<path class="st6" d="M320.8,130.8v10.7h-10.7v-10.7H320.8z"/>
		<path class="st6" d="M320.8,220.6v10.8h-10.7v-10.8H320.8z"/>
		<path class="st6" d="M309.6,243.1V254H299v-10.9H309.6z"/>
		<path class="st6" d="M309.5,198.2V209h-10.7v-10.8H309.5z"/>
		<path class="st6" d="M309.5,153.1v10.8h-10.7v-10.8H309.5z"/>
		<path class="st6" d="M287.1,153.2v10.9h-10.7v-10.9H287.1z"/>
		<path class="st6" d="M298.4,130.9v10.7h-10.7v-10.7H298.4z"/>
		<path class="st6" d="M298.4,175.8v10.7h-10.7v-10.7L298.4,175.8L298.4,175.8z"/>
		<path class="st6" d="M298.3,220.6v10.7h-10.7v-10.7H298.3z"/>
		<path class="st6" d="M287.2,243.2v10.7h-10.7v-10.7H287.2z"/>
		<path class="st6" d="M287.1,198.1v10.8h-10.7v-10.8H287.1z"/>
		<path class="st6" d="M276,175.6v10.8h-10.8v-10.8L276,175.6L276,175.6z"/>
		<path class="st6" d="M276,220.7v10.8h-10.8v-10.8H276z"/>
		<path class="st6" d="M275.9,130.8v10.7h-10.7v-10.7H275.9z"/>
		<path class="st6" d="M264.8,243v10.7h-10.9V243H264.8z"/>
		<path class="st6" d="M264.6,153.2V164h-10.7v-10.8H264.6z"/>
		<path class="st6" d="M264.6,198.1v10.8H254v-10.8H264.6z"/>
		<path class="st6" d="M253.5,131v10.5h-10.9V131H253.5z"/>
		<path class="st6" d="M253.5,175.8v10.7h-10.8v-10.7L253.5,175.8L253.5,175.8z"/>
		<path class="st6" d="M253.4,220.5v10.8h-10.6v-10.8H253.4z"/>
		<path class="st6" d="M242.3,243.1v10.7h-10.8v-10.7H242.3z"/>
		<path class="st6" d="M242.3,153.3v10.6h-10.8v-10.6H242.3z"/>
		<path class="st6" d="M242.3,198.1v10.8h-10.8v-10.8H242.3z"/>
		<path class="st6" d="M231,175.7v10.8h-10.7v-10.8L231,175.7L231,175.7z"/>
		<path class="st6" d="M231,220.6v10.7h-10.7v-10.7H231z"/>
		<path class="st6" d="M231,130.8v10.8h-10.8v-10.8H231z"/>
		<path class="st6" d="M219.8,153.2V164h-10.9v-10.8H219.8z"/>
		<path class="st6" d="M219.8,198.2v10.7H209v-10.7H219.8z"/>
		<path class="st6" d="M219.8,243v10.7H209V243H219.8z"/>
		<path class="st6" d="M208.6,175.8v10.6h-10.9v-10.6H208.6z"/>
		<path class="st6" d="M208.5,220.6v10.9h-10.7v-10.9H208.5z"/>
		<path class="st6" d="M208.5,130.8v10.7h-10.7v-10.7H208.5z"/>
		<path class="st6" d="M197.4,243.1v10.8h-10.8v-10.8H197.4z"/>
		<path class="st6" d="M197.3,198.2V209h-10.8v-10.8H197.3z"/>
		<path class="st6" d="M197.3,153.3v10.6h-10.8v-10.6H197.3z"/>
		<path class="st6" d="M186.1,175.7v10.9h-10.8v-10.9H186.1z"/>
		<path class="st6" d="M186.1,130.8v10.8h-10.9v-10.8H186.1z"/>
		<path class="st6" d="M186,220.6v10.8h-10.7v-10.8H186z"/>
		<path class="st6" d="M174.9,243.1v10.7h-10.8v-10.7H174.9z"/>
		<path class="st6" d="M174.9,153.3v10.8h-10.8v-10.8H174.9z"/>
		<path class="st6" d="M174.8,198.1V209h-10.7v-10.9H174.8z"/>
		<path class="st6" d="M163.7,175.7v10.7h-10.9v-10.7L163.7,175.7L163.7,175.7z"/>
		<path class="st6" d="M163.6,130.8v10.7h-10.8v-10.7H163.6z"/>
		<path class="st6" d="M163.5,220.6v10.8h-10.8v-10.8H163.5z"/>
		<path class="st6" d="M152.5,153.3V164h-10.9v-10.7H152.5z"/>
		<path class="st6" d="M152.4,198.1v10.8h-10.8v-10.8H152.4z"/>
		<path class="st6" d="M152.4,243.1v10.7h-10.9v-10.7H152.4z"/>
		<path class="st6" d="M141.1,175.8v10.8h-10.8v-10.8L141.1,175.8L141.1,175.8z"/>
		<path class="st6" d="M141.1,130.9v10.7h-10.9v-10.7H141.1z"/>
		<path class="st6" d="M141.1,220.6v10.8h-10.8v-10.8H141.1z"/>
		<path class="st6" d="M129.9,153.2V164h-10.8v-10.8H129.9z"/>
		<path class="st6" d="M129.9,198.2v10.7H119v-10.7H129.9z"/>
		<path class="st6" d="M129.9,243v10.8h-10.8V243H129.9z"/>
		<path class="st6" d="M118.6,130.8v10.8h-10.9v-10.8H118.6z"/>
		<path class="st6" d="M118.6,175.7v10.8h-10.8v-10.8L118.6,175.7L118.6,175.7z"/>
		<path class="st6" d="M118.6,220.5v10.9H108v-10.9H118.6z"/>
		<path class="st6" d="M107.5,243.1v10.6H96.6v-10.6H107.5z"/>
		<path class="st6" d="M107.5,153.2v10.7H96.6v-10.7H107.5z"/>
		<path class="st6" d="M107.4,198.1v10.8H96.7v-10.8H107.4z"/>
		<path class="st6" d="M96.3,175.8v10.6H85.4v-10.6H96.3z"/>
		<path class="st6" d="M96.2,130.8v10.7H85.3v-10.7H96.2z"/>
		<path class="st6" d="M96.2,220.6v10.7H85.3v-10.7H96.2z"/>
		<path class="st6" d="M85,198.1v10.8H74.2v-10.8H85z"/>
		<path class="st6" d="M85,153.3v10.8H74.2v-10.8H85z"/>
		<path class="st6" d="M84.9,243.1v10.8H74.2v-10.8H84.9z"/>
		<path class="st6" d="M73.8,175.7v10.8H63v-10.8L73.8,175.7L73.8,175.7z"/>
		<path class="st6" d="M73.8,220.6v10.8H63v-10.8H73.8z"/>
		<path class="st6" d="M73.7,130.8v10.7H63v-10.7H73.7z"/>
		<path class="st6" d="M62.6,153.3v10.6H51.8v-10.6H62.6z"/>
		<path class="st6" d="M62.5,243.2v10.6H51.7v-10.6H62.5z"/>
		<path class="st6" d="M62.5,198.2V209H51.8v-10.8H62.5z"/>
		<path class="st6" d="M51.3,175.9v10.6h-11v-10.6L51.3,175.9L51.3,175.9z"/>
		<path class="st6" d="M51.2,130.8v10.7h-11v-10.7H51.2z"/>
		<path class="st6" d="M51.2,220.7v10.7H40.3v-10.7H51.2z"/>
		<path class="st6" d="M40,198.1V209H29.1v-10.9H40z"/>
		<path class="st6" d="M40,243.1v10.7H29.1v-10.7H40z"/>
		<path class="st6" d="M40,153.3V164H29v-10.7H40z"/>
	</g>
</g>
</svg>
